<svg width="123px" height="52px" viewBox="0 0 123 52" version="1.1" xmlns="http://www.w3.org/2000/svg" xmlns:xlink="http://www.w3.org/1999/xlink" data-v-bc6281a8=""><defs><polygon id="path-2oeqkdqle_-1" points="0 0 50.9772668 0 50.9772668 52 0 52"></polygon> <polygon id="path-2oeqkdqle_-3" points="0 52 123 52 123 0 0 0"></polygon> <polygon id="path-2oeqkdqle_-5" points="0 52 123 52 123 0 0 0"></polygon> <polygon id="path-2oeqkdqle_-7" points="0 52 123 52 123 0 0 0"></polygon></defs> <g id="Page-1" stroke="none" stroke-width="1" fill="none" fill-rule="evenodd"><g id="bcrf-logo-full"><g id="Fill-1-Clipped" transform="translate(47.266341, 0.000000)"><mask id="mask-2oeqkdqle_-2" fill="white"><use xlink:href="#path-2oeqkdqle_-1"></use></mask> <g id="path-1"></g> <path id="Fill-1" d="M47.2650438,4.8501655 C47.2650438,4.8501655 45.4276231,13.36399 30.7557217,22.9461106 C33.3073982,15.6877549 38.2490185,6.59642223 47.2650438,4.8501655 M50.9772668,7.66321334 L46.6341337,1.03842361 C46.6341337,1.03842361 43.3605725,-3.05153801 34.899359,5.00197302 C34.899359,5.00197302 25.4015686,15.1343253 25.149052,26.2934005 C18.758322,29.7908049 10.5460013,33.3151095 0,36.5209381 L3.41660309,41.6901063 C3.41660309,41.6901063 14.5185606,38.289016 26.0132157,32.3442562 C26.1430977,32.7419279 26.2870932,33.1390353 26.4493981,33.5348259 C26.4493981,33.5348259 31.3175902,45.1474426 40.8426539,52.0000376 L39.3668431,48.2328786 C39.3668431,48.2328786 28.1618955,43.2243592 28.3339272,32.3485828 C28.3339272,32.3485828 28.4058296,31.84632 28.5734747,30.9793054 C39.242492,25.1154343 49.5655388,17.1151594 50.9772668,7.66321334" fill="#CF006E" fill-rule="nonzero" mask="url(#mask-2oeqkdqle_-2)"></path></g> <path id="Fill-4" d="M10.0652852,15.7349149 C11.8771491,15.0336282 12.9451952,13.4055067 12.9451952,11.2668454 C12.9451952,7.97918742 10.2916729,5.58506814 6.89414203,5.58506814 L9.53612548e-05,5.58506814 L9.53612548e-05,27.8332404 L7.73484686,27.8332404 C11.6835658,27.8332404 14.5953264,25.0241429 14.5953264,21.2575482 C14.5953264,18.4804301 13.0422729,16.3417688 10.0652852,15.7349149 M6.73202789,14.8735437 L2.52430782,14.8735437 L2.52430782,7.8834377 L6.76445072,7.8834377 C8.89958925,7.8834377 10.4213642,9.38401832 10.4213642,11.362407 C10.4213642,13.3731512 8.86754787,14.8735437 6.73202789,14.8735437 M12.0709232,21.2575482 C12.0709232,23.7150617 10.1617908,25.5348708 7.57254201,25.5348708 L2.52430782,25.5348708 L2.52430782,17.1075784 L7.54088207,17.1075784 C10.1949766,17.1075784 12.0709232,18.8961607 12.0709232,21.2575482" fill="#525659" fill-rule="nonzero"></path> <path id="Fill-6" d="M40.2210702,7.88338127 L45.3017272,7.88338127 C47.7950426,7.88338127 49.6383757,9.76639643 49.6383757,12.2239099 C49.6383757,14.810093 47.7296248,16.7254637 45.1405667,16.7254637 L40.2210702,16.7254637 L40.2210702,7.88338127 Z M54.1979788,25.4091546 C51.1698775,25.633762 49.8146033,24.1284786 49.2761936,23.2123663 C48.6235412,22.1011804 47.5919231,20.2239968 46.8189248,18.8026119 C47.1769109,18.7350792 47.5533972,18.6444085 47.9108112,18.5240159 C50.4071781,17.5529745 52.1637325,15.1720232 52.1637325,12.2239099 C52.1637325,8.39373293 49.1215177,5.5850117 45.3991864,5.5850117 L37.696667,5.5850117 L37.696667,27.8331839 L40.2210702,27.8331839 L40.2210702,19.0227046 L44.0738557,19.0227046 C44.8354107,20.431674 46.2473294,23.0251934 47.0910858,24.4612512 C47.7233309,25.537448 49.5798239,27.922914 53.5977751,27.922914 C53.8516267,27.922914 54.1148238,27.9133202 54.3864126,27.8933802 L54.1979788,25.4091546 Z" fill="#525659" fill-rule="nonzero"></path> <path id="Fill-8" d="M27.135179,25.9815085 C21.8279436,25.9815085 17.9116476,22.0234143 17.9116476,16.7253884 C17.9116476,11.4269863 21.8279436,7.46776351 27.135179,7.46776351 C29.8327582,7.46776351 32.1240985,8.47172475 33.7608791,10.1781014 L35.3942267,8.56691013 C33.2857893,6.42881319 30.4135083,5.17052263 27.135179,5.17052263 C20.6302063,5.17052263 15.3876258,10.0541347 15.3876258,16.7253884 C15.3876258,23.3962659 20.6302063,28.2802542 27.135179,28.2802542 C30.3585802,28.2802542 33.2733923,27.0355079 35.3833555,24.8802926 L33.7524873,23.2713586 C32.1111294,24.9929725 29.7759229,25.9815085 27.135179,25.9815085" fill="#525659" fill-rule="nonzero"></path> <polygon id="Fill-10" fill="#525659" fill-rule="nonzero" points="56.4578308 27.8331651 58.9814711 27.8331651 58.9814711 17.3633374 69.0233928 17.3633374 69.0233928 15.0647797 58.9814711 15.0647797 58.9814711 7.88336245 70.5413533 7.88336245 70.5413533 5.58499289 56.4578308 5.58499289"></polygon> <path id="Fill-12" d="M102.692344,18.3850754 C103.198712,18.3850754 103.572147,18.0291648 103.572147,17.5485351 C103.572147,17.0867167 103.205006,16.7370138 102.68605,16.7370138 L101.704782,16.7370138 L101.704782,18.3850754 L102.692344,18.3850754 Z M102.52775,16.3000264 C102.945623,16.3000264 103.249253,16.0065695 103.249253,15.6134125 C103.249253,15.2262751 102.951726,14.9328182 102.534044,14.9328182 L101.704782,14.9328182 L101.704782,16.3000264 L102.52775,16.3000264 Z M101.211193,14.4834153 L102.55941,14.4834153 C103.224078,14.4834153 103.743034,14.9516295 103.743034,15.5946011 C103.743034,16.0129654 103.534193,16.3312532 103.17964,16.468576 C103.761916,16.5872756 104.065736,17.0054517 104.065736,17.5485351 C104.065736,18.2851872 103.496048,18.8346664 102.724004,18.8346664 L101.211193,18.8346664 L101.211193,14.4834153 Z" fill="#525659" fill-rule="nonzero"></path> <path id="Fill-14" d="M106.495694,16.6620883 C107.001871,16.6620883 107.375306,16.2875545 107.375306,15.7819057 C107.375306,15.3012759 107.01465,14.9329499 106.527354,14.9329499 L105.533499,14.9329499 L105.533499,16.6620883 L106.495694,16.6620883 Z M105.039909,14.4833588 L106.546235,14.4833588 C107.274223,14.4833588 107.869087,15.03265 107.869087,15.7819057 C107.869087,16.3624236 107.521018,16.8306379 107.027428,17.0179988 L108.090516,18.83461 L107.527121,18.83461 L106.533457,17.1114912 L106.527354,17.1114912 L105.533499,17.1114912 L105.533499,18.83461 L105.039909,18.83461 L105.039909,14.4833588 Z" fill="#525659" fill-rule="nonzero"></path> <polygon id="Fill-16" fill="#525659" fill-rule="nonzero" points="109.083646 14.4833965 111.577343 14.4833965 111.577343 14.9329875 109.577236 14.9329875 109.577236 16.3124231 111.457187 16.3124231 111.457187 16.7620141 109.577236 16.7620141 109.577236 18.3850566 111.621781 18.3850566 111.621781 18.8346476 109.083646 18.8346476"></polygon> <path id="Fill-18" d="M115.184668,17.3113617 L114.304865,15.2387282 L113.425062,17.3113617 L115.184668,17.3113617 Z M114.114906,14.4834529 L114.494825,14.4834529 L116.361808,18.8345159 L115.830264,18.8345159 L115.374628,17.7607646 L113.235103,17.7607646 L112.779467,18.8345159 L112.247923,18.8345159 L114.114906,14.4834529 Z" fill="#525659" fill-rule="nonzero"></path> <path id="Fill-20" d="M117.09525,17.6859331 C117.291504,18.1541474 117.639572,18.4726233 118.202966,18.4726233 C119.006671,18.4726233 119.089063,17.9293518 119.089063,17.7047444 C119.089063,17.186492 118.721922,17.0055269 118.101693,16.7370891 C117.430731,16.4436322 116.943435,16.1876098 116.943435,15.4821846 C116.943435,14.8580243 117.455906,14.4022255 118.152234,14.4022255 C118.715629,14.4022255 119.095357,14.6458324 119.342152,15.0952353 L118.918176,15.3074272 C118.753582,15.0015548 118.525669,14.8516284 118.14594,14.8516284 C117.759918,14.8516284 117.437025,15.1076508 117.437025,15.4697691 C117.437025,15.9379834 117.804166,16.0877216 118.335709,16.3249326 C119.145899,16.6808432 119.582653,16.9679042 119.582653,17.6983486 C119.582653,18.3913584 119.101651,18.9220263 118.196673,18.9220263 C117.519226,18.9220263 116.93695,18.5973425 116.671274,17.8795018 L117.09525,17.6859331 Z" fill="#525659" fill-rule="nonzero"></path> <polygon id="Fill-22" fill="#525659" fill-rule="nonzero" points="121.303676 14.9329122 120.10117 14.9329122 120.10117 14.4833212 122.999962 14.4833212 122.999962 14.9329122 121.797266 14.9329122 121.797266 18.8345723 121.303676 18.8345723"></polygon> <path id="Fill-24" d="M99.3762704,20.5494518 C100.053526,20.5494518 100.642096,20.8242854 101.059778,21.2861038 L100.724297,21.5857685 C100.401595,21.2174425 99.9331801,20.9990428 99.3762704,20.9990428 C98.3381678,20.9990428 97.5724169,21.7731294 97.5724169,22.8094462 C97.5724169,23.8455748 98.3381678,24.6198496 99.3762704,24.6198496 C99.9331801,24.6198496 100.420476,24.3950541 100.743369,24.0081048 L101.07885,24.3075813 C100.660977,24.7883992 100.053526,25.0692525 99.3762704,25.0692525 C98.1041512,25.0692525 97.0786363,24.1140126 97.0786363,22.8094462 C97.0786363,21.5045035 98.1041512,20.5494518 99.3762704,20.5494518" fill="#525659" fill-rule="nonzero"></path> <path id="Fill-26" d="M104.521277,23.458682 L103.641474,21.3860485 L102.761671,23.458682 L104.521277,23.458682 Z M103.451515,20.6305851 L103.831434,20.6305851 L105.698417,24.9818362 L105.166873,24.9818362 L104.711237,23.9080849 L102.571712,23.9080849 L102.116076,24.9818362 L101.584532,24.9818362 L103.451515,20.6305851 Z" fill="#525659" fill-rule="nonzero"></path> <polygon id="Fill-28" fill="#525659" fill-rule="nonzero" points="106.457301 20.6306227 106.887762 20.6306227 109.552346 24.1141067 109.552346 20.6306227 110.046127 20.6306227 110.046127 24.9818738 109.647326 24.9818738 106.950891 21.4609553 106.950891 24.9818738 106.457301 24.9818738"></polygon> <path id="Fill-30" d="M113.178401,20.5494518 C113.855657,20.5494518 114.444226,20.8242854 114.861909,21.2861038 L114.526428,21.5857685 C114.203725,21.2174425 113.735311,20.9990428 113.178401,20.9990428 C112.140298,20.9990428 111.374547,21.7731294 111.374547,22.8094462 C111.374547,23.8455748 112.140298,24.6198496 113.178401,24.6198496 C113.735311,24.6198496 114.222607,24.3950541 114.5455,24.0081048 L114.880981,24.3075813 C114.463108,24.7883992 113.855657,25.0692525 113.178401,25.0692525 C111.906282,25.0692525 110.880767,24.1140126 110.880767,22.8094462 C110.880767,21.5045035 111.906282,20.5494518 113.178401,20.5494518" fill="#525659" fill-rule="nonzero"></path> <polygon id="Fill-32" fill="#525659" fill-rule="nonzero" points="115.873825 20.6306227 118.367522 20.6306227 118.367522 21.0802137 116.367415 21.0802137 116.367415 22.4596493 118.247367 22.4596493 118.247367 22.9092403 116.367415 22.9092403 116.367415 24.5324709 118.41196 24.5324709 118.41196 24.9818738 115.873825 24.9818738"></polygon> <path id="Fill-34" d="M121.012824,22.8093898 C121.519002,22.8093898 121.892436,22.434856 121.892436,21.9292071 C121.892436,21.4483893 121.53178,21.0800632 121.044484,21.0800632 L120.050629,21.0800632 L120.050629,22.8093898 L121.012824,22.8093898 Z M119.557039,20.6306603 L121.063365,20.6306603 C121.791353,20.6306603 122.386217,21.1799515 122.386217,21.9292071 C122.386217,22.5097251 122.038148,22.9779394 121.544558,23.1651122 L122.607646,24.9817233 L122.044251,24.9817233 L121.050587,23.2587927 L121.044484,23.2587927 L120.050629,23.2587927 L120.050629,24.9817233 L119.557039,24.9817233 L119.557039,20.6306603 Z" fill="#525659" fill-rule="nonzero"></path> <path id="Fill-36" d="M92.0609749,28.956616 C92.5671525,28.956616 92.9405871,28.5820822 92.9405871,28.0764334 C92.9405871,27.5956155 92.5799309,27.2272895 92.0926349,27.2272895 L91.0987798,27.2272895 L91.0987798,28.956616 L92.0609749,28.956616 Z M90.60519,26.7778865 L92.1115164,26.7778865 C92.8395042,26.7778865 93.4343677,27.3273658 93.4343677,28.0764334 C93.4343677,28.6569513 93.0862991,29.1251656 92.5927093,29.3123384 L93.6557966,31.1289496 L93.0924023,31.1289496 L92.098738,29.4060189 L92.0926349,29.4060189 L91.0987798,29.4060189 L91.0987798,31.1289496 L90.60519,31.1289496 L90.60519,26.7778865 Z" fill="#525659" fill-rule="nonzero"></path> <polygon id="Fill-38" fill="#525659" fill-rule="nonzero" points="94.5919962 26.7779618 97.085693 26.7779618 97.085693 27.2273647 95.085586 27.2273647 95.085586 28.6069884 96.9655378 28.6069884 96.9655378 29.0565794 95.085586 29.0565794 95.085586 30.6796219 97.1301314 30.6796219 97.1301314 31.1290248 94.5919962 31.1290248"></polygon> <path id="Fill-40" d="M98.3193053,29.9804796 C98.5155588,30.4485058 98.8636274,30.7669818 99.4270217,30.7669818 C100.230726,30.7669818 100.313118,30.2238984 100.313118,29.9991028 C100.313118,29.4810385 99.9459776,29.3000734 99.325748,29.0316356 C98.6547862,28.7381787 98.1674902,28.4821564 98.1674902,27.7767311 C98.1674902,27.1525708 98.6799616,26.6965839 99.3762895,26.6965839 C99.9396838,26.6965839 100.319412,26.9403789 100.566207,27.3897818 L100.142231,27.6019737 C99.9776376,27.2961013 99.7497242,27.1463631 99.3699956,27.1463631 C98.9839733,27.1463631 98.66108,27.4021973 98.66108,27.7643156 C98.66108,28.2325299 99.0282209,28.3822681 99.5597645,28.6194791 C100.369954,28.9752016 100.806708,29.2624508 100.806708,29.9928951 C100.806708,30.6859049 100.325706,31.2163847 99.4207278,31.2163847 C98.7432815,31.2163847 98.1610056,30.8918891 97.8953292,30.1738602 L98.3193053,29.9804796 Z" fill="#525659" fill-rule="nonzero"></path> <polygon id="Fill-42" fill="#525659" fill-rule="nonzero" points="101.850361 26.7779618 104.344058 26.7779618 104.344058 27.2273647 102.343951 27.2273647 102.343951 28.6069884 104.223903 28.6069884 104.223903 29.0565794 102.343951 29.0565794 102.343951 30.6796219 104.388496 30.6796219 104.388496 31.1290248 101.850361 31.1290248"></polygon> <path id="Fill-44" d="M108.147656,29.6059082 L107.267853,27.5332747 L106.38805,29.6059082 L108.147656,29.6059082 Z M107.077893,26.7779994 L107.457813,26.7779994 L109.324795,31.1290624 L108.793252,31.1290624 L108.337616,30.0553111 L106.19809,30.0553111 L105.742454,31.1290624 L105.210911,31.1290624 L107.077893,26.7779994 Z" fill="#525659" fill-rule="nonzero"></path> <path id="Fill-46" d="M111.609041,28.956616 C112.115218,28.956616 112.488653,28.5820822 112.488653,28.0764334 C112.488653,27.5956155 112.127997,27.2272895 111.640701,27.2272895 L110.646846,27.2272895 L110.646846,28.956616 L111.609041,28.956616 Z M110.153256,26.7778865 L111.659582,26.7778865 C112.38757,26.7778865 112.982434,27.3273658 112.982434,28.0764334 C112.982434,28.6569513 112.634365,29.1251656 112.140775,29.3123384 L113.203862,31.1289496 L112.640468,31.1289496 L111.646804,29.4060189 L111.640701,29.4060189 L110.646846,29.4060189 L110.646846,31.1289496 L110.153256,31.1289496 L110.153256,26.7778865 Z" fill="#525659" fill-rule="nonzero"></path> <path id="Fill-48" d="M116.026289,26.696678 C116.703544,26.696678 117.292114,26.9715117 117.709796,27.4335182 L117.374315,27.7331828 C117.051613,27.3648568 116.583198,27.146269 116.026289,27.146269 C114.988186,27.146269 114.222435,27.9203557 114.222435,28.9566724 C114.222435,29.992801 114.988186,30.7670758 116.026289,30.7670758 C116.583198,30.7670758 117.070494,30.5422803 117.393388,30.155331 L117.728868,30.4548076 C117.310995,30.9356254 116.703544,31.2164787 116.026289,31.2164787 C114.754169,31.2164787 113.728654,30.2612389 113.728654,28.9566724 C113.728654,27.6519179 114.754169,26.696678 116.026289,26.696678" fill="#525659" fill-rule="nonzero"></path> <polygon id="Fill-50" fill="#525659" fill-rule="nonzero" points="118.664782 26.7779618 119.158372 26.7779618 119.158372 28.5945729 121.608012 28.5945729 121.608012 26.7779618 122.101602 26.7779618 122.101602 31.1290248 121.608012 31.1290248 121.608012 29.0439758 119.158372 29.0439758 119.158372 31.1290248 118.664782 31.1290248"></polygon> <polygon id="Fill-52" fill="#525659" fill-rule="nonzero" points="81.7200575 32.925188 84.0239854 32.925188 84.0239854 33.3747791 82.2136474 33.3747791 82.2136474 34.7792337 83.8656858 34.7792337 83.8656858 35.2288248 82.2136474 35.2288248 82.2136474 37.2764392 81.7200575 37.2764392"></polygon> <path id="Fill-54" d="M87.0489589,36.9144149 C88.0868708,36.9144149 88.8528125,36.1403283 88.8528125,35.1038234 C88.8528125,34.0676948 88.0868708,33.29342 87.0489589,33.29342 C86.0108563,33.29342 85.2388116,34.0676948 85.2388116,35.1038234 C85.2388116,36.1403283 86.0108563,36.9144149 87.0489589,36.9144149 M87.0489589,32.8440171 C88.3210781,32.8440171 89.3464023,33.799257 89.3464023,35.1038234 C89.3464023,36.4087661 88.3210781,37.3638178 87.0489589,37.3638178 C85.7768398,37.3638178 84.7513248,36.4087661 84.7513248,35.1038234 C84.7513248,33.799257 85.7768398,32.8440171 87.0489589,32.8440171" fill="#525659" fill-rule="nonzero"></path> <path id="Fill-56" d="M90.1494776,32.925188 L90.6430675,32.925188 L90.6430675,35.7032468 C90.6430675,36.5023525 91.0988943,36.9019054 91.8013253,36.9019054 C92.5041377,36.9019054 92.9597738,36.5023525 92.9597738,35.7032468 L92.9597738,32.925188 L93.4533637,32.925188 L93.4533637,35.7530968 C93.4533637,36.8082249 92.7509327,37.3514964 91.8013253,37.3514964 C90.8520993,37.3514964 90.1494776,36.8082249 90.1494776,35.7530968 L90.1494776,32.925188 Z" fill="#525659" fill-rule="nonzero"></path> <polygon id="Fill-58" fill="#525659" fill-rule="nonzero" points="94.6678274 32.925188 95.0980974 32.925188 97.7628724 36.408672 97.7628724 32.925188 98.256653 32.925188 98.256653 37.2764392 97.8578522 37.2764392 95.1614173 33.7555206 95.1614173 37.2764392 94.6678274 37.2764392"></polygon> <path id="Fill-60" d="M100.888891,36.8270362 C102.116571,36.8270362 102.705523,36.1154032 102.705523,35.1039175 C102.705523,34.0864121 102.116571,33.3747791 100.882597,33.3747791 L99.9963093,33.3747791 L99.9963093,36.8270362 L100.888891,36.8270362 Z M99.5027194,32.925188 L100.920551,32.925188 C102.350969,32.925188 103.199112,33.8179742 103.199112,35.1039175 C103.199112,36.3900488 102.357263,37.2764392 100.926844,37.2764392 L99.5027194,37.2764392 L99.5027194,32.925188 Z" fill="#525659" fill-rule="nonzero"></path> <path id="Fill-62" d="M106.375844,35.7531344 L105.496041,33.6806891 L104.616238,35.7531344 L106.375844,35.7531344 Z M105.306081,32.9252256 L105.686001,32.9252256 L107.552983,37.2764768 L107.02144,37.2764768 L106.565803,36.2027255 L104.426278,36.2027255 L103.970642,37.2764768 L103.439099,37.2764768 L105.306081,32.9252256 Z" fill="#525659" fill-rule="nonzero"></path> <polygon id="Fill-64" fill="#525659" fill-rule="nonzero" points="108.710421 33.3747602 107.507915 33.3747602 107.507915 32.9251692 110.406707 32.9251692 110.406707 33.3747602 109.204011 33.3747602 109.204011 37.2764203 108.710421 37.2764203"></polygon> <g id="Fill-66-Clipped"><mask id="mask-2oeqkdqle_-4" fill="white"><use xlink:href="#path-2oeqkdqle_-3"></use></mask> <g id="path-3"></g> <polygon id="Fill-66" fill="#525659" fill-rule="nonzero" mask="url(#mask-2oeqkdqle_-4)" points="111.475783 37.2763639 111.969563 37.2763639 111.969563 32.9251128 111.475783 32.9251128"></polygon></g> <g id="Fill-68-Clipped"><mask id="mask-2oeqkdqle_-6" fill="white"><use xlink:href="#path-2oeqkdqle_-5"></use></mask> <g id="path-3"></g> <path id="Fill-68" d="M115.254148,36.9144149 C116.29206,36.9144149 117.058002,36.1403283 117.058002,35.1038234 C117.058002,34.0676948 116.29206,33.29342 115.254148,33.29342 C114.216046,33.29342 113.444001,34.0676948 113.444001,35.1038234 C113.444001,36.1403283 114.216046,36.9144149 115.254148,36.9144149 M115.254148,32.8440171 C116.526268,32.8440171 117.551592,33.799257 117.551592,35.1038234 C117.551592,36.4087661 116.526268,37.3638178 115.254148,37.3638178 C113.982029,37.3638178 112.956514,36.4087661 112.956514,35.1038234 C112.956514,33.799257 113.982029,32.8440171 115.254148,32.8440171" fill="#525659" fill-rule="nonzero" mask="url(#mask-2oeqkdqle_-6)"></path></g> <g id="Fill-69-Clipped"><mask id="mask-2oeqkdqle_-8" fill="white"><use xlink:href="#path-2oeqkdqle_-7"></use></mask> <g id="path-3"></g> <polygon id="Fill-69" fill="#525659" fill-rule="nonzero" mask="url(#mask-2oeqkdqle_-8)" points="118.512719 32.925188 118.942989 32.925188 121.607764 36.408672 121.607764 32.925188 122.101544 32.925188 122.101544 37.2764392 121.702744 37.2764392 119.006309 33.7555206 119.006309 37.2764392 118.512719 37.2764392"></polygon></g></g></g></svg>