<svg xmlns="http://www.w3.org/2000/svg" xmlns:xlink="http://www.w3.org/1999/xlink" version="1.1" id="Content" x="0px" y="0px" style="enable-background:new 0 0 162.3 94.5;" xml:space="preserve" viewBox="18.95 18.94 124.55 56.63">
<style type="text/css">
	.st0{fill:#380F9F;}
	.st1{fill:#FFFFFF;}
</style>
<g>
	<path class="st0" d="M22.2,34.2c-5.6,10.7-4,24.2,5,33.1c10.9,10.9,28.4,11,39.5,0.4h0c0,0,0,0,0,0c0.1-0.1,0.1-0.3,0-0.4   c-0.1-0.1-0.3-0.1-0.4,0c0,0,0,0,0,0h0c-8.4,8-21.7,7.8-29.9-0.4c-7.2-7.2-7.8-18-3.1-26.4c1.7-3.1,0.7-7-2.4-8.7   C27.8,30,23.9,31.1,22.2,34.2"/>
	<path class="st0" d="M72.3,60.3c5.6-10.7,4-24.2-5-33.1c-10.9-10.9-28.4-11-39.5-0.4l0,0c0,0,0,0,0,0c-0.1,0.1-0.1,0.3,0,0.4   c0.1,0.1,0.3,0.1,0.4,0c0,0,0,0,0,0v0c8.4-8,21.7-7.8,29.9,0.4c7.2,7.2,7.8,18,3.1,26.4c-1.7,3.1-0.7,7,2.4,8.7   C66.7,64.5,70.6,63.4,72.3,60.3"/>
	<path class="st0" d="M51,63.2c0,1.8-1.2,3.3-2.9,3.7l0.1-7.3C49.8,60,51,61.5,51,63.2 M52.8,33.3c1.5-1.3,2.7-2.9,3-4.9   c0.1-0.7-0.3-1.4-1.1-1.5c-0.7-0.1-1.4,0.3-1.5,1.1c-0.3,1.4-1,2.5-2.1,3.4c-0.5,0.4-0.6,1.2-0.2,1.8   C51.5,33.7,52.3,33.7,52.8,33.3 M48.1,68.6c2.6-0.4,4.5-2.6,4.5-5.3c0-2.6-1.9-4.8-4.4-5.3l0.1-9.1c0.3,0.1,0.6,0.3,0.9,0.4   c1.4,0.8,2.4,2.1,2.4,3.8c0,1.1-0.4,2.2-1.1,3c-0.3,0.4-0.3,1,0.1,1.3c0.4,0.3,1,0.3,1.3-0.1c1-1.1,1.6-2.6,1.6-4.2   c0-2-0.9-3.6-2.4-4.7c-0.8-0.6-1.8-1.1-2.8-1.5l0.1-10.7c0.3,0.1,0.6,0.3,0.9,0.4c1.8,0.9,3.1,2.5,3.1,4.6c0,1.6-0.7,2.9-1.9,3.8   c-0.4,0.3-0.5,0.9-0.1,1.3c0.3,0.4,0.9,0.5,1.3,0.2c1.8-1.3,2.9-3.2,2.9-5.6c0-2.3-1-4.1-2.7-5.5c-1-0.8-2.2-1.4-3.5-1.9l0.1-5.4   c0-0.7-0.6-1.3-1.3-1.3c-0.7,0-1.3,0.6-1.3,1.3l0,4.7c-0.3-0.1-0.6-0.2-0.9-0.4c-2-0.9-3.5-2.5-3.9-4.5c-0.1-0.7-0.8-1.2-1.5-1.1   c-0.7,0.1-1.2,0.8-1.1,1.5c0.4,2.3,1.8,4.1,3.8,5.4c1.1,0.7,2.3,1.3,3.6,1.7l0.1,10.8c-0.3-0.1-0.6-0.3-0.9-0.4   c-1.8-0.9-3.2-2.5-3.2-4.6c0-1.4,0.6-2.6,1.5-3.5c0.5-0.5,0.5-1.3,0-1.7c-0.5-0.5-1.3-0.5-1.7,0c-1.2,1.3-2,2.9-2,4.8   c0,2.6,1.4,4.6,3.5,6c0.9,0.6,1.9,1,2.9,1.4l0.1,9.4c-0.1,0-0.2-0.1-0.3-0.1c-1.8-0.7-3.1-2.4-3.1-4.4c0-1.2,0.5-2.2,1.2-2.9   c0.4-0.4,0.4-0.9,0-1.3c-0.3-0.4-0.9-0.4-1.3,0c-1.2,1.1-1.9,2.5-1.9,4.3c0,3,2.1,5.6,5,6.2c0.1,0,0.2,0,0.3,0.1l0.1,7.5   c-1.6-0.4-2.9-1.9-2.9-3.7c0-0.8,0.2-1.5,0.6-2.1c0.3-0.4,0.1-0.9-0.2-1.1c-0.4-0.2-0.9-0.2-1.1,0.2c-0.6,0.9-0.9,1.9-0.9,3   c0,2.7,1.9,4.9,4.5,5.3l0,1.2c0,0.5,0.4,0.9,0.9,0.9c0.5,0,0.9-0.4,0.9-0.9L48.1,68.6z"/>
	<path class="st0" d="M136.6,59.7L136.6,59.7h1.9v-3.9c0-1,0.1-1.5,0.4-2.1c0.2-0.5,0.9-0.9,1.5-0.9c1.2,0,1.2,1.3,1.2,2v5h1.9v-5.3   c0-2.3-0.8-3.3-2.5-3.3c-1.7,0-2.2,1.3-2.4,1.8v-4.4h-1.9V59.7z M134,56.7c-0.2,0.9-0.7,1.6-1.6,1.6c-1.7,0-1.7-2.3-1.7-2.6   c0-0.4,0.1-1,0.2-1.6c0.2-0.5,0.5-1.3,1.6-1.3c0.8,0,1.4,0.5,1.5,1.5l1.6-0.2c-0.1-0.7-0.5-2.8-3.2-2.8c-2.4,0-3.7,2-3.7,4.3   c0,1.9,0.9,4.3,3.5,4.3c2.7,0,3.2-2.3,3.4-3L134,56.7z M124.3,59.7L124.3,59.7h1.9v-3.3c0-1.3,0.3-2.1,0.6-2.5   c0.6-0.7,1.3-0.7,1.7-0.7v-2c-1.8-0.1-2.3,1.6-2.5,2.2v-2h-1.7V59.7z M120.9,56.3c0,0.7-0.3,2.2-2.2,2.2c-1.3,0-1.5-0.9-1.5-1.2   c0-1.1,1-1.3,1.4-1.5c0.4-0.1,1.1-0.3,2.3-0.3V56.3z M122.8,54.3c0-1,0-1.7-0.9-2.4c-0.6-0.5-1.6-0.6-2.5-0.6   c-1.7,0-3.4,0.5-3.7,2.4l1.6,0.2c0.1-0.4,0.3-1.3,1.9-1.3c0.8,0,1.8,0.2,1.8,1.3v0.6c-1.8,0-5.5,0-5.5,2.8c0,1.4,1,2.5,2.7,2.5   c2,0,2.5-1.3,2.8-1.8c0,0.7,0.1,1,0.3,1.7h1.8c-0.1-0.3-0.3-0.9-0.3-1.7V54.3z M109.2,54.6c0-0.4,0.1-0.8,0.4-1.2   c0.4-0.5,0.9-0.8,1.5-0.8s1.1,0.3,1.4,0.7c0.4,0.5,0.4,0.9,0.4,1.3H109.2z M113,57.1c-0.2,0.5-0.5,1.3-1.9,1.3   c-0.7,0-1.2-0.2-1.5-0.8c-0.5-0.7-0.5-1.3-0.4-1.9h5.6c0-2.4-1-4.5-3.7-4.5c-2.4,0-3.9,1.9-3.9,4.3c0,2.1,1.1,4.3,3.8,4.3   c1.6,0,3.1-0.7,3.6-2.6L113,57.1z M99.7,57.8c0.3,1.2,1.6,2.1,3.5,2.1c1.1,0,3.6-0.4,3.6-2.7c0-1.3-0.7-2.1-2.1-2.4l-1.8-0.4   c-0.7-0.1-1.2-0.4-1.2-0.9c0-0.5,0.5-0.9,1.5-0.9c1.2,0,1.4,0.7,1.5,0.9l1.7-0.3c-0.5-1.7-2.2-1.9-3.2-1.9c-2.7,0-3.2,1.7-3.2,2.6   c0,1.9,1.7,2.3,2.5,2.4l1.5,0.3c0.3,0.1,0.9,0.3,0.9,0.8c0,1-1.3,1-1.7,1c-1.3,0-1.6-0.6-1.8-1L99.7,57.8z M93.7,54.6   c0-0.4,0.1-0.8,0.4-1.2c0.4-0.5,0.9-0.8,1.5-0.8c0.6,0,1.1,0.3,1.4,0.7c0.4,0.5,0.4,0.9,0.4,1.3H93.7z M97.6,57.1   c-0.2,0.5-0.5,1.3-1.9,1.3c-0.7,0-1.2-0.2-1.5-0.8c-0.5-0.7-0.5-1.3-0.4-1.9h5.6c0-2.4-1-4.5-3.7-4.5c-2.4,0-3.9,1.9-3.9,4.3   c0,2.1,1.1,4.3,3.8,4.3c1.6,0,3.1-0.7,3.6-2.6L97.6,57.1z M84.5,50.2L84.5,50.2h2.7c1.4,0,2,0.8,2,1.6c0,1.4-1.2,1.7-2.1,1.7h-2.5   V50.2z M91.2,59.7L91.2,59.7l-2-4.9c0.6-0.3,2-0.9,2-3c0-1.1-0.4-1.9-1-2.4c-0.7-0.6-1.5-0.9-2.9-0.9h-4.8v11.1h2v-4.6h2.8l1.7,4.6   H91.2z"/>
	<path class="st0" d="M123.8,45.9L123.8,45.9h1.9v-3.3c0-1.3,0.3-2.1,0.6-2.5c0.6-0.7,1.3-0.7,1.7-0.7v-2c-1.8-0.1-2.3,1.6-2.5,2.2   v-2h-1.7V45.9z M117.1,40.8c0-0.4,0.1-0.8,0.4-1.2c0.3-0.5,0.9-0.8,1.5-0.8s1.1,0.3,1.4,0.7c0.3,0.5,0.4,0.9,0.4,1.3H117.1z    M121,43.3c-0.2,0.5-0.5,1.3-1.9,1.3c-0.7,0-1.2-0.2-1.5-0.8c-0.5-0.7-0.5-1.3-0.4-1.9h5.6c0-2.4-1-4.5-3.7-4.5   c-2.4,0-3.9,1.9-3.9,4.3c0,2.1,1.1,4.3,3.8,4.3c1.6,0,3.1-0.7,3.6-2.6L121,43.3z M113.1,42.9c-0.2,0.9-0.7,1.6-1.6,1.6   c-1.7,0-1.7-2.3-1.7-2.6c0-0.4,0.1-1,0.2-1.6c0.2-0.5,0.5-1.3,1.6-1.3c0.8,0,1.4,0.5,1.5,1.5l1.6-0.2c-0.1-0.7-0.5-2.8-3.2-2.8   c-2.4,0-3.7,2-3.7,4.3c0,1.9,0.9,4.3,3.5,4.3c2.7,0,3.2-2.3,3.4-3L113.1,42.9z M100,45.9L100,45.9h1.9V42c0-2.8,1.4-2.9,1.8-2.9   c0.3,0,1.3,0,1.3,1.9v4.8h1.9V41c0-1.1,0.1-3.5-2.6-3.5c-1.5,0-2.2,1.4-2.5,2.1v-1.9H100V45.9z M96.6,42.5c0,0.7-0.3,2.2-2.2,2.2   c-1.3,0-1.5-0.9-1.5-1.2c0-1.1,1-1.3,1.4-1.5c0.4-0.1,1.1-0.3,2.3-0.3V42.5z M98.4,40.5c0-1,0-1.7-0.9-2.4   c-0.6-0.5-1.6-0.6-2.5-0.6c-1.7,0-3.4,0.5-3.7,2.4l1.6,0.2c0.1-0.4,0.3-1.3,1.9-1.3c0.8,0,1.8,0.2,1.8,1.3v0.6   c-1.8,0-5.5,0-5.5,2.8c0,1.4,1,2.5,2.7,2.5c2,0,2.5-1.3,2.8-1.8c0,0.7,0.1,1,0.3,1.7h1.8c-0.1-0.3-0.3-0.9-0.3-1.7V40.5z M88.7,42   c-0.2,1.5-1.2,2.4-2.2,2.4c-1.2,0-2.4-0.9-2.4-4.1c0-1,0.1-4.1,2.4-4.1c1.7,0,2.1,1.6,2.3,2.5l1.9-0.2c-0.4-2.4-1.8-3.9-4.2-3.9   c-3.2,0-4.5,2.8-4.5,5.7c0,1.9,0.7,5.7,4.5,5.7c1.8,0,3.8-0.9,4.2-3.8L88.7,42z"/>
	<path class="st0" d="M117.7,28.6c0,1.3-0.9,2.1-1.8,2.1c-1.7,0-1.7-2.2-1.7-2.8c0-0.7,0.1-2.9,1.8-2.9c0.5,0,1,0.2,1.3,0.6   c0.3,0.5,0.4,0.8,0.4,1.5V28.6z M119.5,32.1L119.5,32.1V20.9h-1.9v4c-0.5-1.2-1.4-1.5-2.2-1.5c-2.5,0-3.2,2.7-3.2,4.3   c0,0.9,0.3,4.4,3.1,4.4c1.7,0,2.2-1.3,2.4-1.8v1.7H119.5z M111.1,32.1L111.1,32.1V20.9h-1.9v11.1H111.1z M104.4,32.1L104.4,32.1   h1.9v-3.3c0-1.3,0.3-2.1,0.6-2.5c0.6-0.7,1.3-0.7,1.7-0.7v-2c-1.8-0.1-2.3,1.6-2.5,2.2v-2h-1.7V32.1z M101.3,27.9   c0,0.9-0.2,2.8-1.9,2.8c-1.9,0-1.9-2.4-1.9-2.8c0-1.3,0.4-2.8,1.9-2.8C100.8,25.2,101.3,26.5,101.3,27.9 M103.3,27.9   c0-2.2-1.3-4.3-3.8-4.3c-2.5,0-3.9,2-3.9,4.2c0,1.9,1,4.3,3.8,4.3C101.4,32.2,103.3,30.7,103.3,27.9 M95.8,20.9L95.8,20.9h-1.8   L92,29.1l-2.2-8.1h-2l-2,8.1l-2.2-8.1h-2.1l3,11.1h2.1l2-8.2l2.2,8.2h2.1L95.8,20.9z"/>
	<path class="st0" d="M111.4,70c0,1.3-0.9,2.1-1.8,2.1c-1.7,0-1.7-2.2-1.7-2.8c0-0.7,0.1-2.9,1.8-2.9c0.5,0,1,0.2,1.3,0.6   c0.3,0.5,0.4,0.8,0.4,1.5V70z M113.3,73.5L113.3,73.5V62.4h-1.9v4c-0.5-1.2-1.4-1.5-2.2-1.5c-2.5,0-3.2,2.7-3.2,4.3   c0,0.9,0.3,4.4,3.1,4.4c1.7,0,2.2-1.3,2.4-1.8v1.7H113.3z M98.1,73.5L98.1,73.5h1.9v-3.9c0-2.8,1.4-2.9,1.8-2.9   c0.3,0,1.3,0,1.3,1.9v4.8h1.9v-4.9c0-1.1,0-3.5-2.6-3.5c-1.5,0-2.2,1.4-2.5,2.1v-1.9h-1.7V73.5z M96.5,65.3L96.5,65.3h-1.9v4   c0,0.8,0,1.2-0.2,1.7c-0.3,0.7-1,1.2-1.6,1.2c-0.9,0-1.2-0.7-1.2-1.6v-5.2h-1.9V71c0,0.8,0.1,1.1,0.4,1.6c0.5,0.7,1.3,1,2,1   c0.9,0,1.4-0.4,1.7-0.6c0.5-0.5,0.7-0.9,0.9-1.3v1.8h1.7V65.3z M84.5,73.5L84.5,73.5v-4.7h3.9v-1.7h-3.9v-3.1h5v-1.7h-7v11.1H84.5z   "/>
</g>
</svg>